<svg width="192" height="60" xmlns="http://www.w3.org/2000/svg" xmlns:xlink="http://www.w3.org/1999/xlink" xml:space="preserve" overflow="hidden"><defs><clipPath id="clip0"><rect x="76" y="68" width="192" height="60"/></clipPath><clipPath id="clip1"><rect x="76" y="68" width="192" height="60"/></clipPath><clipPath id="clip2"><rect x="76" y="68" width="192" height="59"/></clipPath><clipPath id="clip3"><rect x="76" y="68" width="192" height="59"/></clipPath><clipPath id="clip4"><rect x="76" y="68" width="192" height="59"/></clipPath></defs><g clip-path="url(#clip0)" transform="translate(-76 -68)"><g clip-path="url(#clip1)"><g clip-path="url(#clip2)"><g clip-path="url(#clip3)"><g clip-path="url(#clip4)"><path d="M12.2008 58.3995C11.4536 57.3321 10.653 56.2967 9.99122 55.1865 8.34736 52.4325 7.46139 49.4651 7.57881 46.2414 7.7069 42.8469 8.96648 39.8688 10.9306 37.1468 12.3182 35.2148 14.0475 33.5816 15.8088 32.0018 18.6375 29.4506 21.1353 26.6005 23.0033 23.2488 24.4977 20.5588 25.5011 17.7195 25.6078 14.6132 25.6292 14.0155 25.6078 13.3963 25.6078 12.7345 25.9387 13.2469 26.259 13.7379 26.5685 14.2503 28.2764 17.0363 29.7602 19.9291 30.6888 23.0887 32.3007 28.6073 31.2119 33.5389 27.5292 37.9367 25.5545 40.3064 23.2701 42.3559 21.0499 44.4908 19.0004 46.4549 17.0043 48.451 15.4031 50.81 13.898 53.0196 12.8413 55.4214 12.4356 58.0793 12.4356 58.154 12.393 58.2394 12.3716 58.3034 12.2969 58.3355 12.2328 58.3675 12.1901 58.3995L12.1901 58.3995Z" fill="#EF7B25" fill-rule="nonzero" fill-opacity="1" transform="matrix(1 0 0 1.00568 76 68.1343)"/><path d="M17.4099 0C18.3706 1.68655 19.3847 3.35175 20.2813 5.07033 21.6263 7.64285 23.0993 10.0553 23.473 12.9587 23.964 16.62 22.6831 20.2706 20.6656 23.3555 19.0324 25.832 16.9189 27.8921 14.816 29.9416 12.7452 31.9698 10.6424 33.9552 8.90243 36.2929 6.82093 39.0896 5.59337 42.1851 5.54 45.7077 5.54 45.7931 5.54 45.8678 5.51865 46.0172 5.39056 45.8998 5.29449 45.8358 5.21977 45.7504 2.78601 42.9537 1.03541 39.7941 0.309557 36.1648-0.480347 32.2259 0.192139 28.4899 2.43376 25.0955 3.9175 22.8432 5.77484 20.9431 7.76027 19.1392 10.7064 16.4706 13.2469 13.4604 15.0936 9.90582 16.4706 7.2479 17.3672 4.45122 17.3459 1.41969 17.3459 0.971368 17.2925 0.523044 17.2605 0.085395 17.3032 0.0533719 17.3565 0.0213488 17.3992 1.42952e-14L17.3992 1.42952e-14Z" fill="#EF7B25" fill-rule="nonzero" fill-opacity="1" transform="matrix(1 0 0 1.00568 76 68.1343)"/><path d="M62.9148 21.733C62.9361 19.5448 62.349 17.8476 61.1322 16.6414 59.9259 15.4351 58.3034 14.8267 56.2753 14.8267 55.1332 14.8267 54.0977 15.0509 53.1584 15.5099 52.219 15.9689 51.4825 16.5773 50.9595 17.3352 50.4258 18.0931 50.1696 18.9043 50.1696 19.7583 50.1696 20.9538 50.4471 21.9358 50.9915 22.7257 51.5359 23.5157 52.1977 24.1454 52.9556 24.6151 53.7241 25.0848 54.7809 25.6185 56.1259 26.2163 56.2433 26.2696 56.3821 26.3337 56.5422 26.4084 56.809 26.4938 57.0652 26.5792 57.3001 26.6646 60.3316 27.8067 62.8401 28.9276 64.8362 30.0163 66.8216 31.1051 68.4548 32.5462 69.7357 34.3395 71.006 36.1328 71.6144 38.3637 71.5503 41.043 71.4863 43.5088 70.8458 45.7184 69.6396 47.6504 68.4334 49.5825 66.6828 51.0876 64.3878 52.1764 62.0928 53.2651 59.3602 53.7989 56.2006 53.7989 53.2438 53.7989 50.5752 53.1691 48.2055 51.9095 45.8358 50.6499 43.9678 48.878 42.6228 46.6043 41.2778 44.3307 40.584 41.7261 40.5413 38.8014L40.5413 38.4705 49.2622 38.4705C49.337 40.0716 49.6892 41.4486 50.3404 42.5801 50.9808 43.7116 51.8348 44.5762 52.8809 45.1633 53.927 45.7504 55.1225 46.0706 56.4568 46.1026 58.3675 46.1347 59.9259 45.6223 61.1322 44.5655 62.3384 43.5088 62.9148 42.1424 62.8401 40.4452 62.776 39.2177 62.3597 38.1822 61.6018 37.3283 60.8439 36.4743 59.9153 35.7592 58.8051 35.1934 57.695 34.6277 56.1792 33.9659 54.2472 33.208 51.6106 32.1832 49.4544 31.2119 47.7785 30.2939 46.1026 29.3759 44.6829 28.0736 43.4874 26.3657 42.3026 24.6685 41.7048 22.5123 41.7048 19.8864 41.7048 17.4953 42.3773 15.3604 43.7116 13.4711 45.0459 11.5817 46.8498 10.13 49.1128 9.09457 51.3758 8.06983 53.8522 7.55746 56.5315 7.55746 59.2108 7.55746 61.8367 8.1232 64.089 9.25468 66.3413 10.3862 68.1239 11.9873 69.4368 14.0582 70.7498 16.129 71.4116 18.5414 71.4223 21.2954L71.4223 21.7117 62.9361 21.7117Z" fill="#394348" fill-rule="nonzero" fill-opacity="1" transform="matrix(1 0 0 1.00568 76 68.1343)"/><path d="M76.1617 8.30467 100.318 8.30467 100.318 15.3711 84.8933 15.3711 84.8933 26.5152 100.318 26.5152 100.318 33.1119 84.8933 33.1119 84.8933 46.0172 100.318 46.0172 100.318 53.0517 76.1617 53.0517 76.1617 8.30467Z" fill="#394348" fill-rule="nonzero" fill-opacity="1" transform="matrix(1 0 0 1.00568 76 68.1343)"/><path d="M127.601 53.0517C123.076 53.0517 119.083 52.091 115.614 50.1802 112.145 48.2695 109.455 45.6223 107.544 42.2599 105.634 38.8974 104.673 35.0974 104.673 30.8596 104.673 26.6219 105.644 22.7898 107.576 19.3633 109.508 15.9368 112.284 13.2362 115.892 11.2615 119.5 9.28671 123.684 8.29399 128.455 8.29399L133.045 8.29399 133.045 16.0009 128.402 16.0009C125.467 16.0009 122.873 16.652 120.61 17.9543 118.347 19.2566 116.586 21.0605 115.326 23.3662 114.066 25.6719 113.426 28.2444 113.426 31.1051 113.426 33.7951 114.045 36.2182 115.294 38.3851 116.532 40.5413 118.293 42.2492 120.556 43.4874 122.819 44.7256 125.435 45.3554 128.413 45.3554L133.056 45.2914 133.056 53.0517 127.612 53.0517Z" fill="#394348" fill-rule="nonzero" fill-opacity="1" transform="matrix(1 0 0 1.00568 76 68.1343)"/><path d="M165.346 37.8834 158.248 15.9155 151.149 37.8834 165.346 37.8834ZM167.15 44.5442 149.335 44.5442 146.516 53.0517 137.667 53.0517 152.772 8.30467 163.756 8.30467 178.796 53.0517 169.947 53.0517 167.161 44.5442Z" fill="#394348" fill-rule="nonzero" fill-opacity="1" transform="matrix(1 0 0 1.00568 76 68.1343)"/><path d="M183.258 8.30467 191.989 8.30467 191.989 53.0517 183.258 53.0517Z" fill="#394348" fill-rule="nonzero" fill-opacity="1" transform="matrix(1 0 0 1.00568 76 68.1343)"/></g></g></g></g></g></svg>