<svg width="181" height="56" xmlns="http://www.w3.org/2000/svg" xmlns:xlink="http://www.w3.org/1999/xlink" xml:space="preserve" overflow="hidden"><defs><clipPath id="clip0"><rect x="550" y="333" width="180" height="54"/></clipPath><clipPath id="clip1"><rect x="550" y="333" width="180" height="54"/></clipPath><clipPath id="clip2"><rect x="550" y="333" width="180" height="54"/></clipPath></defs><g transform="translate(-549 -332)"><g><g clip-path="url(#clip0)"><g clip-path="url(#clip1)"><g clip-path="url(#clip2)"><path d="M11.2303 53.7541C10.5425 52.7716 9.80563 51.8185 9.19646 50.7967 7.68337 48.2618 6.86787 45.5303 6.97595 42.5631 7.09385 39.4387 8.25323 36.6974 10.0611 34.192 11.3384 32.4136 12.9301 30.9103 14.5512 29.4562 17.1549 27.1079 19.4541 24.4846 21.1735 21.3995 22.549 18.9235 23.4726 16.31 23.5708 13.4508 23.5905 12.9006 23.5708 12.3307 23.5708 11.7216 23.8754 12.1932 24.1702 12.6451 24.4551 13.1167 26.0272 15.6811 27.3929 18.3438 28.2477 21.2521 29.7313 26.3317 28.7291 30.871 25.3394 34.919 23.5217 37.1002 21.4191 38.9867 19.3754 40.9518 17.489 42.7596 15.6517 44.5969 14.1779 46.7683 12.7925 48.8022 11.8198 51.0128 11.4464 53.4593 11.4464 53.5281 11.4071 53.6067 11.3875 53.6657 11.3187 53.6951 11.2598 53.7246 11.2205 53.7541L11.2205 53.7541Z" fill="#EF7B25" fill-rule="nonzero" fill-opacity="1" transform="matrix(1.01852 0 0 1 550 333.123)"/><path d="M16.025 0C16.9093 1.55239 17.8427 3.08514 18.668 4.66701 19.906 7.0349 21.2619 9.25541 21.6058 11.9279 22.0577 15.298 20.8787 18.6582 19.0217 21.4977 17.5185 23.7772 15.5731 25.6735 13.6375 27.5599 11.7314 29.4267 9.7958 31.2542 8.19428 33.4059 6.27835 35.9802 5.14845 38.8295 5.09932 42.0718 5.09932 42.1504 5.09932 42.2192 5.07967 42.3568 4.96177 42.2487 4.87334 42.1897 4.80456 42.1111 2.5644 39.5369 0.953052 36.6286 0.284933 33.288-0.442138 29.6625 0.176855 26.2237 2.24016 23.0992 3.60588 21.0261 5.31547 19.2772 7.14298 17.6167 9.85475 15.1604 12.1932 12.3897 13.8929 9.11786 15.1604 6.67136 15.9857 4.09714 15.9661 1.30676 15.9661 0.8941 15.917 0.481439 15.8875 0.0786022 15.9268 0.0491264 15.9759 0.0196506 16.0152 1.31581e-14L16.0152 1.31581e-14Z" fill="#EF7B25" fill-rule="nonzero" fill-opacity="1" transform="matrix(1.01852 0 0 1 550 333.123)"/><path d="M57.9102 20.0043C57.9298 17.9901 57.3895 16.4279 56.2694 15.3176 55.1591 14.2074 53.6657 13.6473 51.7989 13.6473 50.7476 13.6473 49.7945 13.8536 48.9299 14.2761 48.0653 14.6986 47.3873 15.2587 46.9059 15.9563 46.4146 16.6538 46.1788 17.4006 46.1788 18.1866 46.1788 19.287 46.4343 20.1909 46.9354 20.918 47.4364 21.6451 48.0456 22.2248 48.7432 22.6571 49.4506 23.0894 50.4233 23.5807 51.6613 24.1309 51.7694 24.18 51.8971 24.239 52.0445 24.3077 52.2901 24.3863 52.5259 24.4649 52.7421 24.5435 55.5325 25.5948 57.8414 26.6265 59.6787 27.6287 61.5062 28.6309 63.0095 29.9573 64.1885 31.6079 65.3577 33.2586 65.9178 35.312 65.8588 37.7782 65.7999 40.0478 65.2104 42.0817 64.1001 43.86 62.9899 45.6384 61.3785 47.0238 59.2661 48.026 57.1536 49.0281 54.6384 49.5194 51.7301 49.5194 49.0085 49.5194 46.5522 48.9397 44.371 47.7803 42.1897 46.6209 40.4703 44.9899 39.2323 42.8972 37.9943 40.8044 37.3557 38.407 37.3164 35.7149L37.3164 35.4103 45.3437 35.4103C45.4124 36.8841 45.7367 38.1516 46.336 39.193 46.9255 40.2345 47.7116 41.0304 48.6744 41.5708 49.6373 42.1111 50.7377 42.4059 51.9659 42.4354 53.7246 42.4649 55.1591 41.9932 56.2694 41.0205 57.3796 40.0478 57.9102 38.7902 57.8414 37.228 57.7825 36.0981 57.3993 35.145 56.7017 34.359 56.0041 33.573 55.1493 32.9147 54.1275 32.3939 53.1056 31.8732 51.7104 31.264 49.9321 30.5664 47.5052 29.6232 45.5205 28.7291 43.9779 27.8841 42.4354 27.0392 41.1286 25.8405 40.0282 24.2684 38.9376 22.7062 38.3874 20.7215 38.3874 18.3045 38.3874 16.1036 39.0064 14.1386 40.2345 12.3995 41.4627 10.6604 43.1231 9.32419 45.2061 8.37114 47.2891 7.42791 49.5685 6.9563 52.0347 6.9563 54.5008 6.9563 56.9178 7.47704 58.991 8.51852 61.0641 9.55999 62.7049 11.0338 63.9134 12.9399 65.1219 14.846 65.7311 17.0665 65.7409 19.6014L65.7409 19.9846 57.9298 19.9846Z" fill="#043F52" fill-rule="nonzero" fill-opacity="1" transform="matrix(1.01852 0 0 1 550 333.123)"/><path d="M70.1034 7.64407 92.338 7.64407 92.338 14.1484 78.1404 14.1484 78.1404 24.406 92.338 24.406 92.338 30.478 78.1404 30.478 78.1404 42.3568 92.338 42.3568 92.338 48.8316 70.1034 48.8316 70.1034 7.64407Z" fill="#043F52" fill-rule="nonzero" fill-opacity="1" transform="matrix(1.01852 0 0 1 550 333.123)"/><path d="M117.451 48.8316C113.285 48.8316 109.611 47.9474 106.418 46.1886 103.224 44.4299 100.748 41.9932 98.9897 38.8983 97.2309 35.8033 96.3467 32.3055 96.3467 28.4049 96.3467 24.5042 97.2408 20.977 99.0191 17.8231 100.798 14.6691 103.352 12.1833 106.673 10.3657 109.994 8.54799 113.845 7.63424 118.237 7.63424L122.462 7.63424 122.462 14.7281 118.188 14.7281C115.486 14.7281 113.099 15.3274 111.016 16.5261 108.933 17.7248 107.312 19.3853 106.152 21.5075 104.993 23.6298 104.403 25.9977 104.403 28.6309 104.403 31.1068 104.973 33.3372 106.123 35.3317 107.263 37.3164 108.884 38.8885 110.967 40.0282 113.05 41.1679 115.457 41.7476 118.198 41.7476L122.472 41.6887 122.472 48.8316 117.461 48.8316Z" fill="#043F52" fill-rule="nonzero" fill-opacity="1" transform="matrix(1.01852 0 0 1 550 333.123)"/><path d="M152.194 34.8699 145.66 14.6495 139.126 34.8699 152.194 34.8699ZM153.854 41.0009 137.456 41.0009 134.862 48.8316 126.717 48.8316 140.619 7.64407 150.73 7.64407 164.573 48.8316 156.428 48.8316 153.864 41.0009Z" fill="#043F52" fill-rule="nonzero" fill-opacity="1" transform="matrix(1.01852 0 0 1 550 333.123)"/><path d="M168.68 7.64407 176.717 7.64407 176.717 48.8316 168.68 48.8316Z" fill="#043F52" fill-rule="nonzero" fill-opacity="1" transform="matrix(1.01852 0 0 1 550 333.123)"/></g></g></g></g></g></svg>