<svg width="269" height="83" xmlns="http://www.w3.org/2000/svg" xmlns:xlink="http://www.w3.org/1999/xlink" xml:space="preserve" overflow="hidden"><defs><clipPath id="clip0"><rect x="506" y="319" width="268" height="82"/></clipPath><clipPath id="clip1"><rect x="506" y="319" width="268" height="82"/></clipPath><clipPath id="clip2"><rect x="506" y="319" width="268" height="82"/></clipPath></defs><g transform="translate(-505 -318)"><g><g clip-path="url(#clip0)"><g clip-path="url(#clip1)"><g clip-path="url(#clip2)"><path d="M17.0303 81.516C15.9873 80.026 14.8698 78.5808 13.9461 77.0312 11.6515 73.1871 10.4149 69.045 10.5788 64.5453 10.7575 59.8072 12.5157 55.6502 15.2572 51.8508 17.1942 49.1539 19.6079 46.8743 22.0664 44.6691 26.0148 41.1081 29.5013 37.1299 32.1087 32.4514 34.1947 28.6967 35.5953 24.7334 35.7443 20.3976 35.7741 19.5632 35.7443 18.6991 35.7443 17.7753 36.2061 18.4905 36.6531 19.1758 37.0852 19.891 39.4692 23.7798 41.5402 27.8176 42.8365 32.2279 45.0863 39.9311 43.5666 46.8147 38.4262 52.9534 35.6698 56.2611 32.4812 59.1218 29.3821 62.1017 26.5214 64.8433 23.7351 67.6295 21.5002 70.9223 19.3993 74.0066 17.9243 77.359 17.3581 81.069 17.3581 81.1733 17.2985 81.2925 17.2687 81.3819 17.1644 81.4266 17.075 81.4713 17.0154 81.516L17.0154 81.516Z" fill="#FFFFFF" fill-rule="nonzero" fill-opacity="1" transform="matrix(1 0 0 1.00136 506 319.187)"/><path d="M24.3013 0C25.6423 2.35414 27.0578 4.67849 28.3093 7.07733 30.1867 10.6681 32.2428 14.0355 32.7643 18.0882 33.4497 23.1988 31.6618 28.2944 28.8457 32.6004 26.5661 36.0572 23.6159 38.9328 20.6807 41.7935 17.7902 44.6245 14.855 47.3958 12.4263 50.6588 9.52088 54.5625 7.80742 58.8834 7.73292 63.8003 7.73292 63.9195 7.73292 64.0238 7.70312 64.2324 7.52432 64.0685 7.39023 63.9791 7.28593 63.8599 3.88881 59.9562 1.44527 55.5459 0.43209 50.48-0.670484 44.982 0.268194 39.7672 3.39712 35.0291 5.46817 31.8853 8.06071 29.2331 10.832 26.7151 14.9443 22.9902 18.4905 18.7885 21.0681 13.8269 22.9902 10.1169 24.2417 6.21315 24.2119 1.98165 24.2119 1.35587 24.1374 0.730083 24.0927 0.119197 24.1523 0.0744983 24.2268 0.0297993 24.2864 1.99538e-14L24.2864 1.99538e-14Z" fill="#FFFFFF" fill-rule="nonzero" fill-opacity="1" transform="matrix(1 0 0 1.00136 506 319.187)"/><path d="M87.8185 30.3357C87.8483 27.2813 87.0289 24.9122 85.3303 23.2286 83.6466 21.5449 81.3819 20.6956 78.551 20.6956 76.9567 20.6956 75.5114 21.0085 74.2003 21.6492 72.8891 22.2899 71.861 23.1392 71.1309 24.197 70.3859 25.2549 70.0284 26.3873 70.0284 27.5793 70.0284 29.248 70.4157 30.6188 71.1756 31.7214 71.9355 32.8239 72.8593 33.703 73.9172 34.3586 74.9899 35.0142 76.465 35.7592 78.3424 36.5935 78.5062 36.668 78.7 36.7574 78.9234 36.8617 79.2959 36.9809 79.6535 37.1001 79.9813 37.2193 84.2128 38.8136 87.7142 40.3781 90.5005 41.8978 93.2718 43.4176 95.5515 45.429 97.3394 47.9322 99.1125 50.4353 99.9617 53.5493 99.8724 57.2892 99.783 60.731 98.889 63.8152 97.2053 66.512 95.5217 69.2089 93.0781 71.3097 89.8747 72.8295 86.6713 74.3493 82.8569 75.0942 78.4467 75.0942 74.3195 75.0942 70.5945 74.2152 67.2868 72.457 63.9791 70.6988 61.3717 68.2255 59.4943 65.0519 57.6169 61.8782 56.6485 58.2427 56.5889 54.1602L56.5889 53.6983 68.7619 53.6983C68.8662 55.9333 69.3579 57.8553 70.2667 59.4347 71.1607 61.0141 72.3527 62.2209 73.8129 63.0404 75.273 63.8599 76.9418 64.3069 78.8042 64.3516 81.4713 64.3963 83.6466 63.6811 85.3303 62.206 87.014 60.731 87.8185 58.8238 87.7142 56.4548 87.6248 54.7413 87.0437 53.296 85.9859 52.1041 84.928 50.9121 83.6317 49.9138 82.0822 49.1241 80.5326 48.3345 78.4169 47.4107 75.72 46.3528 72.0398 44.9224 69.0301 43.5666 66.6908 42.2852 64.3516 41.0038 62.3699 39.1861 60.7012 36.8021 59.0473 34.4331 58.2129 31.4234 58.2129 27.758 58.2129 24.4205 59.1516 21.4406 61.0141 18.8034 62.8765 16.1661 65.3946 14.1398 68.5533 12.6945 71.712 11.2641 75.1687 10.549 78.9085 10.549 82.6484 10.549 86.3137 11.3386 89.4575 12.918 92.6013 14.4974 95.0896 16.7323 96.9222 19.6228 98.7549 22.5134 99.6787 25.8807 99.6936 29.7248L99.6936 30.3059 87.8483 30.3059Z" fill="#FFFFFF" fill-rule="nonzero" fill-opacity="1" transform="matrix(1 0 0 1.00136 506 319.187)"/><path d="M106.309 11.5919 140.027 11.5919 140.027 21.4555 118.497 21.4555 118.497 37.0107 140.027 37.0107 140.027 46.2187 118.497 46.2187 118.497 64.2324 140.027 64.2324 140.027 74.0513 106.309 74.0513 106.309 11.5919Z" fill="#FFFFFF" fill-rule="nonzero" fill-opacity="1" transform="matrix(1 0 0 1.00136 506 319.187)"/><path d="M178.11 74.0513C171.793 74.0513 166.22 72.7103 161.378 70.0433 156.536 67.3762 152.781 63.6811 150.114 58.9877 147.447 54.2943 146.106 48.9901 146.106 43.0749 146.106 37.1597 147.462 31.8108 150.159 27.028 152.855 22.2452 156.729 18.4756 161.766 15.7191 166.802 12.9627 172.642 11.577 179.302 11.577L185.709 11.577 185.709 22.3346 179.228 22.3346C175.13 22.3346 171.51 23.2435 168.351 25.0612 165.192 26.879 162.734 29.397 160.976 32.6153 159.218 35.8337 158.324 39.4245 158.324 43.4176 158.324 47.1723 159.188 50.5545 160.931 53.5791 162.659 56.5889 165.118 58.9728 168.277 60.7012 171.435 62.4295 175.086 63.3086 179.243 63.3086L185.724 63.2192 185.724 74.0513 178.125 74.0513Z" fill="#FFFFFF" fill-rule="nonzero" fill-opacity="1" transform="matrix(1 0 0 1.00136 506 319.187)"/><path d="M230.796 52.8789 220.887 22.2154 210.979 52.8789 230.796 52.8789ZM233.314 62.1762 208.446 62.1762 204.513 74.0513 192.161 74.0513 213.244 11.5919 228.576 11.5919 249.569 74.0513 237.217 74.0513 233.329 62.1762Z" fill="#FFFFFF" fill-rule="nonzero" fill-opacity="1" transform="matrix(1 0 0 1.00136 506 319.187)"/><path d="M255.797 11.5919 267.985 11.5919 267.985 74.0513 255.797 74.0513Z" fill="#FFFFFF" fill-rule="nonzero" fill-opacity="1" transform="matrix(1 0 0 1.00136 506 319.187)"/></g></g></g></g></g></svg>